<svg xmlns="http://www.w3.org/2000/svg" width="185.132" height="34.505" viewBox="0 0 185.132 34.505">
  <g id="Logo" transform="translate(-109.632 -234.8)">
    <g id="Layer_1" data-name="Layer 1" transform="translate(173.364 242.895)">
      <path id="Tracé_1" data-name="Tracé 1" d="M332.883,260.395H328.82l-3.507,14.762L322.3,260.395h-4.676l-3.041,14.762-3.479-14.762h-4.093l5.554,20.286h4.239l3.156-15.289,3.127,15.289h4.268l5.525-20.286Zm95.531,16.75c-1.93.117-2.895-.674-2.895-2.777v-5.321h2.719v-3.421H425.52V261.8h-3.858v3.83h-1.813v3.421h1.813v5.291c0,4.122,2.337,6.783,6.753,6.313v-3.507ZM418.1,271.882c0-3.975-2.34-6.635-5.877-6.635a4.967,4.967,0,0,0-3.888,1.841v-1.462h-3.684v15.055h3.86v-8.8a2.858,2.858,0,0,1,2.923-2.982,2.678,2.678,0,0,1,2.806,2.982v8.8h3.86v-8.8Zm-16.956-6.255h-3.857v8.8a2.849,2.849,0,0,1-2.924,2.952,2.684,2.684,0,0,1-2.806-2.952v-8.8h-3.858v8.8c0,3.947,2.367,6.607,5.934,6.607a4.93,4.93,0,0,0,3.829-1.725v1.375h3.683V265.626Zm-23.268-.379a7.9,7.9,0,1,0,7.6,7.922,7.674,7.674,0,0,0-7.6-7.922Zm0,12.249c-2.045,0-3.713-1.754-3.713-4.3,0-2.6,1.667-4.414,3.713-4.414s3.712,1.811,3.712,4.414c0,2.543-1.666,4.3-3.712,4.3Zm-9.3-3.246h-4.15a5.672,5.672,0,0,1-5.058,3.274c-3.333,0-5.963-3.214-5.963-7.074,0-3.83,2.63-7.046,5.963-7.046a5.591,5.591,0,0,1,5.058,3.216h4.18a9.2,9.2,0,0,0-9.238-6.751c-5.523,0-9.822,4.647-9.822,10.581s4.3,10.581,9.822,10.581a9.32,9.32,0,0,0,9.208-6.782Zm-20.929.41h-11.37a3.83,3.83,0,0,0,3.77,2.981,3.5,3.5,0,0,0,3.186-1.754h4.123a7.135,7.135,0,0,1-7.28,5.145,7.894,7.894,0,0,1,0-15.785c4.444,0,8.128,3.449,7.572,9.413ZM336.334,271.5h7.484a3.769,3.769,0,0,0-3.77-2.864A3.851,3.851,0,0,0,336.334,271.5Z" transform="translate(-307.014 -259.869)" fill="#fff" fill-rule="evenodd"/>
    </g>
    <g id="Layer_2" data-name="Layer 2" transform="translate(109.632 234.8)">
      <path id="Tracé_2" data-name="Tracé 2" d="M158.063,248.923l-9.106,9.106-3.735,3.736-.024.024-4.364-4.366,3.76-3.759,13.577-13.578c2.877-2.877-1.469-7.214-4.342-4.342L141.5,248.078h0l-7.866,7.867-3.736,3.737-.023.023h0l-2.086,2.086-.024-.024-3.736-3.736-9.105-9.105c-2.875-2.876-7.22,1.465-4.343,4.342l14.859,14.858c.054.061.112.123.172.183a3.494,3.494,0,0,0,1.433.878,2.617,2.617,0,0,0,2.354-.4l.093-.058.04-.04a4.239,4.239,0,0,0,.395-.349l6.569-6.569,6.569,6.569a4.133,4.133,0,0,0,.4.349l.039.04c.03.019.061.039.094.058a2.615,2.615,0,0,0,2.353.4,3.507,3.507,0,0,0,1.433-.878c.059-.06.118-.122.172-.183l14.858-14.858c2.877-2.878-1.468-7.218-4.342-4.343Zm-39.208-4.793.035-.033c-1.939-2.7,1.58-6.21,4.274-4.275l.035-.033,6.731,6.732c2.877,2.877-1.467,7.215-4.342,4.342l-1.114-1.115h0l-5.2-5.2,0,0Z" transform="translate(-109.632 -234.8)" fill="#fff" fill-rule="evenodd"/>
    </g>
  </g>
</svg>
